# xmcd
#
# Track frame offsets:
#	180
#	13547
#	26962
#	39524
#	50392
#	66153
#	80261
#	91665
#	105808
#	116860
#	130047
#	147234
#
# Disc length: 2176
#
# Revision: 1
# Processed by: cddbd v1.5.1PL0 Copyright (c) Steve Scherf et al.
# Submitted via: CD-DA_X-Tractor v0.23
# Normalized: r0:TDELIM( - )
#
DISCID=92087e0c
DTITLE=Various Artist - Super Box Of Country Favorites Disc 1
DYEAR=2003
DGENRE=
TTITLE0=Lynn Anderson - Rose Garden
TTITLE1=Mel McDaniel - Baby's Got Her Blue Jeans On
TTITLE2=Porter Wagoner - The Carroll County Accident
TTITLE3=Ferlin Husky - Gone
TTITLE4=Lacy J. Dalton - Takin' It Easy
TTITLE5=T. Graham Brown - Hell And High Water
TTITLE6=Ernie Ashworth - Talk Back Trembling Lips
TTITLE7=Bob Luman - Lonely Women Make Good Lovers
TTITLE8="Little" Jimmy Dickens - May The Bird Of Paradise Fly Up Your Nose
TTITLE9=Bobby Helms - My Special Angel
TTITLE10=Ray Price - For The Good Times
TTITLE11=Johnny Lee - Lookin' For Love
EXTD=
EXTT0=
EXTT1=
EXTT2=
EXTT3=
EXTT4=
EXTT5=
EXTT6=
EXTT7=
EXTT8=
EXTT9=
EXTT10=
EXTT11=
PLAYORDER=
